# AST/ASF file generated using VICON BodyLanguage
# -----------------------------------------------
:version 1.10
:name VICON
:units
  mass 1.0
  length 0.45
  angle deg
:documentation
   .ast/.asf automatically generated from VICON data using
   VICON BodyBuilder and BodyLanguage model FoxedUp or BRILLIANT.MOD
:root
   order TX TY TZ RX RY RZ
   axis XYZ
   position 0 0 0  
   orientation 0 0 0 
:bonedata
  begin
     id 1 
     name lhipjoint
     direction 0.528046 -0.759594 0.379717 
     length 2.39752 
     axis 0 0 0  XYZ
  end
  begin
     id 2 
     name lfemur
     direction 0.34202 -0.939693 0  
     length 7.31175  
     axis 0 0 20  XYZ
    dof rx ry rz
    limits (-160.0 20.0)
           (-70.0 70.0)
           (-60.0 70.0)
  end
  begin
     id 3 
     name ltibia
     direction 0.34202 -0.939693 0   
     length 7.52482   
     axis 0 0 20   XYZ
    dof rx
    limits (-10.0 170.0)
  end
  begin
     id 4 
     name lfoot
     direction 0.0675379 -0.185559 0.980309   
     length 2.00961   
     axis -90 7.62852e-016 20   XYZ
    dof rx rz
    limits (-45.0 90.0)
           (-70.0 20.0)
  end
  begin
     id 5 
     name ltoes
     direction 1.5352e-011 -4.22286e-011 1   
     length 1.01383   
     axis -90 7.62852e-016 20   XYZ
    dof rx
    limits (-90.0 20.0)
  end
  begin
     id 6 
     name rhipjoint
     direction -0.510274 -0.769251 0.384544   
     length 2.36742  
     axis 0 0 0  XYZ 
  end
  begin
     id 7 
     name rfemur
     direction -0.34202 -0.939693 0   
     length 7.45325   
     axis 0 0 -20   XYZ
    dof rx ry rz
    limits (-160.0 20.0)
           (-70.0 70.0)
           (-70.0 60.0)
  end
  begin
     id 8 
     name rtibia
     direction -0.34202 -0.939693 0   
     length 7.49587   
     axis 0 0 -20   XYZ
    dof rx
    limits (-10.0 170.0)
 end
 begin
     id 9 
     name rfoot
     direction -0.106475 -0.292536 0.950308   
     length 2.20898  
     axis -90 -7.62852e-016 -20   XYZ
    dof rx rz
    limits (-45.0 90.0)
           (-20.0 70.0)
  end
  begin
     id 10 
     name rtoes
     direction -1.53597e-011 -4.22023e-011 1   
     length 1.10065   
     axis -90 -7.62852e-016 -20   XYZ
    dof rx
    limits (-90.0 20.0)
  end
  begin
     id 11 
     name lowerback
     direction 0.0260024 0.998026 -0.0571652   
     length 2.11214   
     axis 0 0 0   XYZ
    dof rx ry rz
    limits (-20.0 45.0)
           (-30.0 30.0)
           (-30.0 30.0)
  end
  begin
     id 12 
     name upperback
     direction 0.0216202 0.999542 -0.0211766   
     length 2.11689   
     axis 0 0 0   XYZ
    dof rx ry rz
    limits (-20.0 45.0)
           (-30.0 30.0)
           (-30.0 30.0)
  end
  begin
     id 13 
     name thorax
     direction 0.00883312 0.999944 0.00589057   
     length 2.11821   
     axis 0 0 0   XYZ
    dof rx ry rz
    limits (-20.0 45.0)
           (-30.0 30.0)
           (-30.0 30.0)
  end
  begin
     id 14 
     name lowerneck
     direction -0.059386 0.994433 0.0870401   
     length 1.81176   
     axis 0 0 0   XYZ
    dof rx ry rz
    limits (-20.0 45.0)
           (-30.0 30.0)
           (-30.0 30.0)
  end
  begin
     id 15 
     name upperneck
     direction 0.0506457 0.97328 -0.223967   
     length 1.82382   
     axis 0 0 0   XYZ
    dof rx ry rz
    limits (-20.0 45.0)
           (-30.0 30.0)
           (-30.0 30.0)
  end
  begin
     id 16
     name head
     direction 0.0205902 0.996147 -0.0852487  
     length 1.84805  
     axis 0 0 0   XYZ
    dof rx ry rz
    limits (-20.0 45.0)
           (-30.0 30.0)
           (-30.0 30.0)
  end
  begin
     id 17 
     name lclavicle
     direction 0.949493 0.303881 -0.0782325  
     length 3.60584  
     axis 0 0 0   XYZ
    dof ry rz
    limits (-20.0 10.0)
           (0.0 20.0)
  end
  begin
     id 18 
     name lhumerus
     direction 1 -4.48965e-011 1.48782e-027   
     length 4.95681   
     axis 180 -30 -90   XYZ
    dof rx ry rz
    limits (-60.0 90.0)
           (-90.0 90.0)
           (-90.0 90.0)
  end
  begin
     id 19
     name lradius
     direction 1 -4.48952e-011 2.06528e-027   
     length 3.40915   
     axis 180 -30 -90   XYZ
    dof rx
    limits (-10.0 170.0)
  end
  begin
     id 20
     name lwrist
     direction 1 -4.48964e-011 1.28021e-027   
     length 1.70457   
     axis -1.61767e-015 90 90   XYZ
    dof ry
    limits (-180.0 0.0)
 end
  begin
     id 21 
     name lhand
     direction 1 -4.49094e-011 2.54887e-027   
     length 0.616403   
     axis -1.63363e-015 90 90   XYZ
    dof rx rz
    limits (-90.0 90.0)
           (-45.0 45.0)
  end
  begin
     id 22 
     name lfingers
     direction 1 -4.49002e-011 5.11407e-027   
     length 0.49696   
     axis -3.26723e-015 90 90   XYZ
    dof rx
    limits (0.0 90.0)
  end
  begin
     id 23
     name lthumb
     direction 0.707107 -6.34998e-011 0.707107   
     length 0.713539   
     axis -90 45 -2.25915e-014   XYZ
    dof rx rz
    limits (-45.0 45.0)
           (-45.0 45.0)
  end
  begin
     id 24 
     name rclavicle
     direction -0.937751 0.334612 -0.0930482   
     length 3.46287  
     axis 0 0 0   XYZ 
    dof ry rz
    limits (-10.0 20.0)
           (-20.0 0.0)
  end
  begin
     id 25 
     name rhumerus
     direction -1 -4.48962e-011 3.59972e-027  
     length 5.352   
     axis 180 30 90   XYZ
    dof rx ry rz
    limits (-90.0 60.0)
           (-90.0 90.0)
           (-90.0 90.0)
  end
  begin
     id 26 
     name rradius
     direction -1 -4.48987e-011 -3.76925e-027   
     length 3.43721   
     axis 180 30 90   XYZ
    dof rx
    limits (-10.0 170.0)
  end
  begin
     id 27 
     name rwrist
     direction -1 -4.48943e-011 1.28112e-027   
     length 1.7186   
     axis -1.61767e-015 -90 -90   XYZ
    dof ry
    limits (-180.0 0.0)
  end
  begin
     id 28
     name rhand
     direction -1 -4.49027e-011 2.55483e-027   
     length 0.72009   
     axis -1.63363e-015 -90 -90   XYZ
    dof rx rz
    limits (-90.0 90.0)
           (-45.0 45.0)
  end
  begin
     id 29
     name rfingers
     direction -1 -4.48827e-011 5.14506e-027   
     length 0.580555   
     axis -3.26723e-015 -90 -90   XYZ
    dof rx
    limits (0.0 90.0)
  end
  begin
     id 30
     name rthumb
     direction -0.707107 -6.34936e-011 0.707107   
     length 0.833564   
     axis -90 -45 2.25915e-014   XYZ
    dof rx rz
    limits (-45.0 45.0)
           (-45.0 45.0)
  end
:hierarchy
  begin
    root lhipjoint rhipjoint lowerback
    lhipjoint lfemur
    lfemur ltibia
    ltibia lfoot
    lfoot ltoes
    rhipjoint rfemur
    rfemur rtibia
    rtibia rfoot
    rfoot rtoes
    lowerback upperback
    upperback thorax
    thorax lowerneck lclavicle rclavicle
    lowerneck upperneck
    upperneck head
    lclavicle lhumerus
    lhumerus lradius
    lradius lwrist
    lwrist lhand lthumb
    lhand lfingers
    rclavicle rhumerus
    rhumerus rradius
    rradius rwrist
    rwrist rhand rthumb
    rhand rfingers
  end

#!OML:ASF H:\Terrain\Patient Classification 1\Terrain2\Thursday\justin.ASF
:FULLY-SPECIFIED
:DEGREES
266
root -5.24962 23.7384 -1.29855 -5.57639 79.9347 -8.35591
lowerback 11.0014 0.940326 -0.180797
upperback 0.808568 1.42077 2.54519
thorax -5.39763 0.754688 2.54631
lowerneck -15.1975 -2.03622 -8.07792
upperneck 33.108 -1.0537 4.18223
head 13.8778 -0.596207 3.00217
rclavicle -4.96962e-016 -1.43125e-014
rhumerus -29.9489 4.45952 -86.5443
rradius 43.0126
rwrist -15.9552
rhand -20.055 9.69746
rfingers 7.12502
rthumb 6.28676 -20.1893
lclavicle -4.96962e-016 -1.43125e-014
lhumerus -31.0762 -1.47999 86.3911
lradius 42.0046
lwrist 9.13561
lhand -21.9312 21.6565
lfingers 7.12502
lthumb 4.47519 51.5892
rfemur -27.6786 -6.04726 20.6593
rtibia 70.0109
rfoot -15.601 -2.20935
rtoes -0.896944
lfemur -17.3791 -1.67716 -22.1496
ltibia 29.843
lfoot -12.9963 -1.98973
ltoes 26.7283
267
root -5.19909 23.7383 -1.31297 -5.97194 79.9742 -9.01783
lowerback 10.7138 0.840627 0.100829
upperback 0.72747 1.32083 2.5727
thorax -5.31158 0.69881 2.43392
lowerneck -15.3853 -2.0341 -8.38439
upperneck 33.2551 -0.994846 4.3523
head 13.9847 -0.588086 3.14108
rclavicle -5.96354e-015 -3.97569e-015
rhumerus -30.0159 4.73016 -86.4024
rradius 43.0028
rwrist -16.2356
rhand -19.52 9.66127
rfingers 7.12502
rthumb 6.80321 -20.2094
lclavicle -5.96354e-015 -3.97569e-015
lhumerus -31.0152 -1.90489 86.5643
lradius 42.1625
lwrist 9.14032
lhand -22.425 21.9922
lfingers 7.12502
lthumb 3.99835 51.9345
rfemur -28.5411 -5.93205 20.8734
rtibia 69.1216
rfoot -16.154 -2.07127
rtoes -0.0217758
lfemur -17.2606 -1.46087 -22.2458
ltibia 29.2553
lfoot -12.763 -1.4953
ltoes 20.9822
268
root -5.13539 23.7463 -1.28608 -5.94398 80.2769 -8.92346
lowerback 10.5173 0.610848 -0.362558
upperback 0.799688 0.963915 2.69314
thorax -5.12001 0.534013 2.87781
lowerneck -15.6908 -1.89441 -8.2708
upperneck 33.5442 -0.733334 4.19012
head 14.1593 -0.486271 3.10976
rclavicle -7.65321e-015 5.56597e-015
rhumerus -30.0462 5.36773 -86.4671
rradius 43.0033
rwrist -16.3423
rhand -19.1676 9.41475
rfingers 7.12502
rthumb 7.14333 -20.4447
lclavicle -7.65321e-015 5.56597e-015
lhumerus -30.9925 -1.75192 86.4949
lradius 42.3318
lwrist 9.06531
lhand -22.4086 21.8153
lfingers 7.12502
lthumb 4.0142 51.7573
rfemur -28.7396 -5.80577 21.0535
rtibia 68.0124
rfoot -17.1133 -2.25715
rtoes 1.23423
lfemur -16.6631 -1.41198 -22.2427
ltibia 28.847
lfoot -12.6159 -1.86759
ltoes 18.7333
269
root -5.08069 23.7199 -1.27442 -5.57612 80.5122 -8.51303
lowerback 10.4752 0.476644 -0.666482
upperback 0.771009 0.752596 2.75106
thorax -5.11986 0.437286 3.14274
lowerneck -15.6239 -1.81882 -8.0898
upperneck 33.6276 -0.638317 4.07435
head 14.1718 -0.437751 3.0487
rclavicle 1.2921e-014 1.03368e-014
rhumerus -30.1727 5.31294 -86.3773
rradius 42.887
rwrist -15.9314
rhand -19.2657 9.46333
rfingers 7.12502
rthumb 7.04868 -20.3993
lclavicle 1.2921e-014 1.03368e-014
lhumerus -31.0605 -1.57694 86.4826
lradius 42.4993
lwrist 8.7312
lhand -21.8204 21.56
lfingers 7.12502
lthumb 4.58222 51.4904
rfemur -29.1067 -5.72706 21.1139
rtibia 66.8295
rfoot -17.7587 -2.49422
rtoes -0.300103
lfemur -16.2877 -1.36221 -22.3877
ltibia 28.7325
lfoot -12.7376 -2.0062
ltoes 17.6564
270
root -5.02812 23.7483 -1.2825 -5.34502 80.7146 -8.31326
lowerback 10.4994 0.481613 -0.491037
upperback 0.682364 0.772381 2.62748
thorax -5.22344 0.442052 2.91068
lowerneck -15.4029 -1.89967 -7.87787
upperneck 33.5901 -0.858334 4.13004
head 14.1198 -0.495239 2.99628
rclavicle -2.14687e-014 -3.97569e-015
rhumerus -30.2975 4.38602 -86.183
rradius 42.5683
rwrist -15.4946
rhand -19.886 9.85324
rfingers 7.12502
rthumb 6.44988 -20.0286
lclavicle -2.14687e-014 -3.97569e-015
lhumerus -31.0533 -2.08748 86.6066
lradius 42.5849
lwrist 8.48462
lhand -21.3664 21.7986
lfingers 7.12502
lthumb 5.02053 51.7191
rfemur -29.3399 -5.8813 21.1529
rtibia 65.3005
rfoot -18.1206 -2.7515
rtoes -2.99811
lfemur -16.1695 -1.88047 -22.384
ltibia 28.8124
lfoot -12.8727 -2.27061
ltoes 21.1936
271
root -4.97038 23.7555 -1.26708 -5.1204 80.9651 -7.93479
lowerback 10.546 0.407912 -0.579752
upperback 0.720152 0.658566 2.54626
thorax -5.20339 0.38632 2.8924
lowerneck -15.4271 -1.91787 -7.75263
upperneck 33.715 -0.917019 4.13575
head 14.1843 -0.503543 2.97213
rclavicle -9.54166e-015 1.51076e-014
rhumerus -30.3608 3.91548 -86.107
rradius 42.2778
rwrist -15.3769
rhand -20.3967 9.54122
rfingers 7.12502
rthumb 5.95686 -20.355
lclavicle -9.54166e-015 1.51076e-014
lhumerus -30.9901 -2.46708 86.6166
lradius 42.5937
lwrist 8.50249
lhand -21.4796 21.8346
lfingers 7.12502
lthumb 4.91126 51.7577
rfemur -29.336 -5.81842 21.2187
rtibia 63.82
rfoot -18.5329 -2.86234
rtoes -4.00981
lfemur -15.8335 -1.83245 -22.4536
ltibia 28.9649
lfoot -13.1145 -2.56175
ltoes 20.7255
272
root -4.91324 23.7587 -1.25781 -5.51988 81.1817 -8.27628
lowerback 10.5249 0.263801 -0.6189
upperback 0.734508 0.468308 2.6342
thorax -5.1671 0.29463 3.03532
lowerneck -15.4461 -1.85168 -7.89986
upperneck 33.8446 -0.744429 4.08577
head 14.236 -0.455052 3.01062
rclavicle -1.56046e-014 -7.95139e-016
rhumerus -30.3978 4.39794 -85.975
rradius 42.0552
rwrist -15.9612
rhand -19.7265 9.0601
rfingers 7.12502
rthumb 6.60384 -20.8169
lclavicle -1.56046e-014 -7.95139e-016
lhumerus -30.9433 -2.44177 86.7004
lradius 42.6295
lwrist 8.51291
lhand -21.5056 21.5692
lfingers 7.12502
lthumb 4.88613 51.4929
rfemur -29.5022 -5.50494 21.3151
rtibia 62.2665
rfoot -18.8327 -2.43145
rtoes -3.35534
lfemur -15.7201 -1.9301 -22.4256
ltibia 29.2775
lfoot -13.109 -2.60218
ltoes 20.047
273
root -4.8564 23.763 -1.25466 -5.77657 81.3959 -8.6013
lowerback 10.4387 0.184175 -0.653327
upperback 0.689132 0.362988 2.71239
thorax -5.16122 0.244772 3.1527
lowerneck -15.381 -1.8807 -8.10202
upperneck 33.9015 -0.748202 4.15863
head 14.2503 -0.472079 3.07752
rclavicle -1.67973e-014 5.56597e-015
rhumerus -30.4041 4.84763 -85.7791
rradius 41.7948
rwrist -16.5671
rhand -18.8432 9.28467
rfingers 7.12502
rthumb 7.45652 -20.5639
lclavicle -1.67973e-014 5.56597e-015
lhumerus -30.9069 -2.51153 86.8799
lradius 42.6667
lwrist 8.36096
lhand -21.0876 21.5416
lfingers 7.12502
lthumb 5.28974 51.4556
rfemur -29.8017 -5.29126 21.3594
rtibia 60.7054
rfoot -19.2755 -1.83416
rtoes -1.80744
lfemur -15.6262 -2.13446 -22.4035
ltibia 29.3341
lfoot -12.9575 -2.65341
ltoes 19.7919
274
root -4.79946 23.7557 -1.24557 -6.27162 81.6034 -9.21716
lowerback 10.2834 0.124521 -0.570104
upperback 0.648871 0.287846 2.65345
thorax -5.11116 0.204176 3.05385
lowerneck -15.4587 -1.97495 -8.07499
upperneck 34.0254 -0.921936 4.26435
head 14.3381 -0.529625 3.09359
rclavicle 1.25234e-014 2.06736e-014
rhumerus -30.3739 4.09014 -85.6414
rradius 41.49
rwrist -15.8668
rhand -18.9492 9.50173
rfingers 7.12502
rthumb 7.3542 -20.3505
lclavicle 1.25234e-014 2.06736e-014
lhumerus -30.8755 -3.01918 86.9065
lradius 42.6523
lwrist 8.2423
lhand -20.9311 21.8662
lfingers 7.12502
lthumb 5.44084 51.7764
rfemur -30.0523 -5.14039 21.4917
rtibia 59.1014
rfoot -19.709 -1.44407
rtoes -1.93309
lfemur -15.5563 -2.17127 -22.3546
ltibia 29.4466
lfoot -13.1895 -2.69714
ltoes 18.0368
275
root -4.7407 23.7458 -1.23265 -7.78647 81.8105 -10.6907
lowerback 10.2308 -0.0101696 -0.295521
upperback 0.692799 0.137354 2.60543
thorax -5.02611 0.122407 2.86865
lowerneck -15.3944 -1.95919 -7.98581
upperneck 33.9561 -0.946809 4.29271
head 14.2923 -0.525235 3.0822
rclavicle -1.91827e-014 -5.56597e-015
rhumerus -30.331 2.9945 -85.5432
rradius 41.0959
rwrist -14.8014
rhand -19.9617 9.76135
rfingers 7.12502
rthumb 6.3768 -20.1227
lclavicle -1.91827e-014 -5.56597e-015
lhumerus -30.8008 -3.49521 86.8327
lradius 42.592
lwrist 8.35449
lhand -21.019 22.1234
lfingers 7.12502
lthumb 5.35596 52.0357
rfemur -30.0183 -4.93844 21.7217
rtibia 57.4287
rfoot -19.769 -0.93038
rtoes -3.04166
lfemur -15.3511 -2.06778 -22.1769
ltibia 29.6753
lfoot -13.4064 -2.87028
ltoes 15.1521
276
root -4.6806 23.7466 -1.22157 -9.00353 82.0684 -11.8184
lowerback 10.2337 -0.157785 -0.231019
upperback 0.728063 -0.0444273 2.70229
thorax -4.98132 0.0327827 2.9596
lowerneck -15.236 -1.92477 -8.01435
upperneck 33.8814 -0.852789 4.1573
head 14.2158 -0.506156 3.04269
rclavicle 2.88238e-015 -1.19271e-014
rhumerus -30.2612 2.79759 -85.3086
rradius 40.4952
rwrist -14.6707
rhand -20.6052 10.0561
rfingers 7.12502
rthumb 5.75551 -19.8457
lclavicle 2.88238e-015 -1.19271e-014
lhumerus -30.6666 -3.3116 86.9257
lradius 42.3316
lwrist 8.29541
lhand -20.996 21.935
lfingers 7.12502
lthumb 5.37823 51.8467
rfemur -29.8899 -4.66137 21.8177
rtibia 55.7458
rfoot -19.6945 0.0308499
rtoes -2.29184
lfemur -15.0924 -2.51534 -21.9239
ltibia 29.849
lfoot -13.431 -3.40257
ltoes 18.0727
277
root -4.6217 23.75 -1.21201 -9.16615 82.3289 -12.1257
lowerback 10.0456 -0.244589 -0.399918
upperback 0.662067 -0.175015 2.80859
thorax -4.9375 -0.0270181 3.18416
lowerneck -15.3648 -1.95193 -8.04396
upperneck 34.2181 -0.802952 4.02239
head 14.3962 -0.507129 3.01456
rclavicle 1.48095e-014 -1.03368e-014
rhumerus -30.2148 2.87524 -85.0153
rradius 39.8443
rwrist -14.9173
rhand -20.7526 10.0037
rfingers 7.12502
rthumb 5.6132 -19.9019
lclavicle 1.48095e-014 -1.03368e-014
lhumerus -30.5821 -3.31922 87.1803
lradius 42.0366
lwrist 8.33813
lhand -21.0932 21.722
lfingers 7.12502
lthumb 5.28433 51.6361
rfemur -30.0596 -4.28743 21.7856
rtibia 54.1881
rfoot -19.6686 0.723494
rtoes -2.45829
lfemur -15.0385 -3.10657 -21.8182
ltibia 29.8445
lfoot -13.6549 -3.83364
ltoes 23.795
278
root -4.56154 23.7359 -1.20303 -7.73572 82.6128 -10.797
lowerback 9.86261 -0.346318 -0.647221
upperback 0.635334 -0.345496 2.74727
thorax -4.85181 -0.10851 3.28148
lowerneck -15.419 -1.92965 -8.03907
upperneck 34.4529 -0.771428 4.08019
head 14.5137 -0.485172 3.0527
rclavicle 2.28602e-014 -5.56597e-015
rhumerus -30.1748 2.57439 -84.8625
rradius 39.3204
rwrist -14.8529
rhand -21.0463 9.83117
rfingers 7.12502
rthumb 5.3296 -20.0818
lclavicle 2.28602e-014 -5.56597e-015
lhumerus -30.4978 -3.5921 87.2655
lradius 41.7839
lwrist 8.42477
lhand -21.1338 21.8193
lfingers 7.12502
lthumb 5.24512 51.7344
rfemur -30.1908 -3.91562 21.45
rtibia 52.657
rfoot -19.6263 1.95103
rtoes 1.17272
lfemur -15.0363 -2.82766 -22.2388
ltibia 29.7739
lfoot -14.2703 -3.51087
ltoes 22.6466
279
root -4.49596 23.6985 -1.1896 -6.26879 82.9443 -9.20427
lowerback 9.84855 -0.471365 -0.879632
upperback 0.68858 -0.542795 2.68189
thorax -4.77431 -0.203553 3.37072
lowerneck -15.3307 -1.89862 -8.04679
upperneck 34.5752 -0.698039 4.02704
head 14.5446 -0.461057 3.04853
rclavicle 7.85199e-015 1.03368e-014
rhumerus -30.1173 1.89135 -84.6286
rradius 38.8502
rwrist -14.3731
rhand -20.8868 9.78733
rfingers 7.12502
rthumb 5.48364 -20.1217
lclavicle 7.85199e-015 1.03368e-014
lhumerus -30.3422 -3.22678 87.2392
lradius 41.3941
lwrist 7.96372
lhand -20.8411 21.7777
lfingers 7.12502
lthumb 5.52776 51.6856
rfemur -30.1457 -3.63831 21.1053
rtibia 51.3328
rfoot -19.5899 3.09531
rtoes 3.29416
lfemur -14.7288 -2.38309 -22.722
ltibia 29.5815
lfoot -14.3422 -3.24909
ltoes 19.1684
